# xmcd
#
# Track frame offsets:
#	150
#	14500
#	27422
#	42467
#	63512
#	80360
#	94482
#	107772
#	126410
#	147715
#	159092
#	172357
#	183900
#	201057
#
# Disc length: 2884 seconds
#
# Revision: 1
# Processed by: cddbd v1.4b41PL2 Copyright (c) Steve Scherf et al.
# Submitted via: audiograbber 1.80
#
DISCID=cd0b420e
DTITLE=Kelly Willis - One More Time
DYEAR=1900
DGENRE=
TTITLE0=Looking For Someone Like You
TTITLE1=River Of Love
TTITLE2=I Don't Want To Love You (But I Do)
TTITLE3=Sincerely (Too Late To Turn Back Now)
TTITLE4=Baby Take A Piece Of My Heart
TTITLE5=The Heart That Love Forgot
TTITLE6=I'll Try Again
TTITLE7=Hidden Things
TTITLE8=Little Honey
TTITLE9=Heaven's Just A Sin Away
TTITLE10=Get Real
TTITLE11=Take It All Out On You
TTITLE12=I Know Better Now
TTITLE13=Whatever Way The Wind Blows
EXTD=
EXTT0=
EXTT1=
EXTT2=
EXTT3=
EXTT4=
EXTT5=
EXTT6=
EXTT7=
EXTT8=
EXTT9=
EXTT10=
EXTT11=
EXTT12=
EXTT13=
PLAYORDER=
